<svg id="svg" version="1.1" xmlns="http://www.w3.org/2000/svg" xmlns:xlink="http://www.w3.org/1999/xlink" width="400" height="359.2775041050903" viewBox="0, 0, 400,359.2775041050903"><g id="svgg"><path id="path0" d="M214.555 117.520 C 214.555 117.718,213.827 117.880,212.938 117.880 C 212.049 117.880,211.321 118.041,211.321 118.239 C 211.321 118.437,210.603 118.598,209.725 118.598 C 208.847 118.598,208.029 118.760,207.907 118.958 C 207.784 119.155,207.290 119.317,206.807 119.317 C 206.325 119.317,205.930 119.479,205.930 119.677 C 205.930 119.874,205.535 120.036,205.053 120.036 C 204.570 120.036,204.080 120.191,203.963 120.380 C 203.846 120.569,203.513 120.632,203.223 120.521 C 202.933 120.410,202.695 120.497,202.695 120.716 C 202.695 120.935,202.404 121.114,202.048 121.114 C 201.245 121.114,199.468 121.917,199.464 122.282 C 199.462 122.430,199.137 122.552,198.742 122.552 C 198.347 122.552,198.023 122.713,198.023 122.911 C 198.023 123.109,197.801 123.270,197.528 123.270 C 197.256 123.270,196.832 123.513,196.586 123.810 C 196.340 124.106,195.835 124.349,195.464 124.349 C 195.093 124.349,194.789 124.471,194.789 124.620 C 194.789 124.770,194.303 125.107,193.709 125.370 C 193.115 125.633,192.720 125.996,192.831 126.177 C 192.943 126.357,192.775 126.505,192.458 126.505 C 192.141 126.505,191.492 126.869,191.016 127.314 C 189.727 128.519,189.093 129.021,188.859 129.021 C 188.579 129.021,182.210 135.381,182.210 135.661 C 182.210 135.903,181.720 136.526,180.503 137.827 C 180.058 138.302,179.695 138.903,179.695 139.160 C 179.695 139.418,179.371 139.831,178.976 140.078 C 178.580 140.325,178.257 140.768,178.257 141.063 C 178.257 141.358,178.095 141.599,177.898 141.599 C 177.700 141.599,177.538 141.911,177.538 142.292 C 177.538 142.674,177.296 143.228,176.999 143.525 C 176.703 143.821,176.460 144.237,176.460 144.449 C 176.460 144.661,176.298 144.834,176.101 144.834 C 175.903 144.834,175.741 145.157,175.741 145.553 C 175.741 145.948,175.580 146.271,175.382 146.271 C 175.184 146.271,175.022 146.676,175.022 147.170 C 175.022 147.664,174.861 148.068,174.663 148.068 C 174.465 148.068,174.304 148.392,174.304 148.787 C 174.304 149.182,174.161 149.506,173.986 149.506 C 173.811 149.506,173.557 150.395,173.421 151.482 C 173.285 152.570,173.024 153.459,172.840 153.459 C 172.657 153.459,172.507 153.863,172.507 154.358 C 172.507 154.852,172.345 155.256,172.147 155.256 C 171.950 155.256,171.788 156.065,171.788 157.053 C 171.788 158.041,171.626 158.850,171.429 158.850 C 171.231 158.850,171.069 159.739,171.069 160.827 C 171.069 161.914,170.907 162.803,170.710 162.803 C 170.485 162.803,170.350 164.960,170.350 168.553 C 170.350 172.147,170.485 174.304,170.710 174.304 C 170.913 174.304,171.069 175.322,171.069 176.640 C 171.069 177.957,171.226 178.976,171.429 178.976 C 171.626 178.976,171.788 179.542,171.788 180.234 C 171.788 180.925,171.950 181.491,172.147 181.491 C 172.345 181.491,172.507 182.138,172.507 182.929 C 172.507 183.720,172.648 184.367,172.820 184.367 C 172.993 184.367,173.260 185.054,173.414 185.894 C 173.568 186.734,173.732 187.502,173.778 187.601 C 173.824 187.700,173.980 188.145,174.124 188.589 C 174.269 189.034,174.530 189.398,174.705 189.398 C 174.880 189.398,175.022 189.883,175.022 190.476 C 175.022 191.069,175.184 191.554,175.382 191.554 C 175.580 191.554,175.741 191.797,175.741 192.093 C 175.741 192.390,175.903 192.633,176.101 192.633 C 176.298 192.633,176.460 192.956,176.460 193.351 C 176.460 193.747,176.622 194.070,176.819 194.070 C 177.017 194.070,177.179 194.382,177.179 194.763 C 177.179 195.144,177.421 195.699,177.718 195.995 C 178.014 196.292,178.257 196.708,178.257 196.920 C 178.257 197.131,178.419 197.305,178.616 197.305 C 178.814 197.305,178.976 197.592,178.976 197.944 C 178.976 198.296,179.299 198.817,179.695 199.102 C 180.090 199.386,180.413 199.890,180.413 200.221 C 180.413 200.551,180.656 200.915,180.952 201.028 C 181.249 201.142,181.491 201.499,181.491 201.821 C 181.491 202.143,181.977 202.860,182.570 203.414 C 183.163 203.968,183.648 204.517,183.648 204.634 C 183.648 204.836,184.752 206.212,185.714 207.210 C 185.961 207.466,186.164 207.773,186.164 207.893 C 186.164 208.410,191.128 213.118,191.673 213.118 C 192.003 213.118,192.273 213.284,192.273 213.488 C 192.273 213.692,192.857 214.379,193.571 215.016 C 194.284 215.652,195.247 216.536,195.711 216.981 C 196.174 217.426,196.647 217.790,196.761 217.790 C 196.876 217.790,197.521 218.315,198.195 218.958 C 199.781 220.468,200.460 221.024,200.716 221.024 C 200.829 221.024,201.488 221.590,202.180 222.282 C 202.872 222.974,203.584 223.540,203.761 223.540 C 203.939 223.540,204.187 223.863,204.313 224.259 C 204.438 224.654,204.782 224.978,205.077 224.978 C 205.371 224.978,206.330 225.705,207.207 226.595 C 208.083 227.484,208.970 228.212,209.177 228.212 C 209.383 228.212,210.186 228.859,210.961 229.650 C 211.736 230.440,212.541 231.087,212.750 231.087 C 212.959 231.087,213.827 231.815,214.679 232.704 C 215.532 233.594,216.344 234.322,216.485 234.322 C 216.764 234.322,217.344 234.771,218.689 236.029 C 219.165 236.473,219.642 236.837,219.749 236.837 C 219.857 236.837,220.545 237.403,221.278 238.095 C 222.011 238.787,222.756 239.353,222.932 239.353 C 223.108 239.353,223.705 239.838,224.259 240.431 C 224.813 241.024,225.436 241.509,225.644 241.509 C 225.851 241.509,226.571 242.075,227.243 242.767 C 227.915 243.459,228.691 244.027,228.967 244.028 C 229.244 244.030,229.852 244.515,230.319 245.107 C 230.786 245.698,231.385 246.181,231.650 246.181 C 231.916 246.181,232.537 246.586,233.031 247.080 C 233.525 247.574,234.023 247.978,234.138 247.978 C 234.252 247.978,234.912 248.544,235.603 249.236 C 236.295 249.928,237.168 250.494,237.544 250.494 C 237.919 250.494,238.329 250.818,238.455 251.213 C 238.580 251.608,238.930 251.932,239.233 251.932 C 239.536 251.932,240.237 252.417,240.791 253.010 C 241.345 253.603,241.968 254.088,242.176 254.088 C 242.385 254.088,242.959 254.492,243.453 254.987 C 243.948 255.481,244.538 255.885,244.766 255.885 C 244.993 255.885,245.480 256.267,245.848 256.735 C 246.216 257.202,247.007 257.788,247.607 258.036 C 248.207 258.285,248.697 258.630,248.697 258.804 C 248.697 258.977,248.904 259.119,249.157 259.119 C 249.410 259.119,249.850 259.443,250.135 259.838 C 250.420 260.234,250.867 260.557,251.129 260.557 C 251.391 260.557,252.009 260.961,252.503 261.456 C 252.998 261.950,253.601 262.354,253.845 262.354 C 254.089 262.354,254.522 262.677,254.807 263.073 C 255.092 263.468,255.553 263.792,255.832 263.792 C 256.111 263.792,256.656 264.155,257.042 264.600 C 258.054 265.766,261.631 265.759,262.646 264.588 C 263.026 264.150,263.590 263.792,263.899 263.792 C 264.209 263.792,264.565 263.468,264.690 263.073 C 264.815 262.677,265.219 262.354,265.587 262.354 C 265.955 262.354,266.499 262.111,266.795 261.815 C 267.092 261.518,267.442 261.276,267.575 261.276 C 267.707 261.276,268.269 260.791,268.823 260.198 C 269.377 259.605,270.089 259.119,270.405 259.119 C 270.721 259.119,270.979 258.969,270.979 258.784 C 270.979 258.600,271.284 258.352,271.656 258.234 C 272.029 258.116,272.836 257.539,273.450 256.952 C 274.064 256.365,274.775 255.885,275.030 255.885 C 275.284 255.885,275.726 255.562,276.011 255.166 C 276.296 254.771,276.728 254.447,276.972 254.447 C 277.216 254.447,277.820 254.043,278.314 253.549 C 278.808 253.055,279.317 252.650,279.444 252.650 C 279.571 252.650,280.129 252.165,280.683 251.572 C 281.237 250.979,281.937 250.494,282.239 250.494 C 282.540 250.494,283.105 250.090,283.494 249.596 C 283.882 249.102,284.395 248.697,284.633 248.697 C 284.872 248.697,285.520 248.212,286.074 247.619 C 286.628 247.026,287.253 246.541,287.464 246.541 C 287.674 246.541,288.413 245.975,289.105 245.283 C 289.796 244.591,290.460 244.025,290.580 244.025 C 290.699 244.025,291.022 243.823,291.298 243.576 C 292.461 242.533,292.890 242.228,293.193 242.228 C 293.640 242.228,295.777 240.145,295.777 239.709 C 295.777 239.513,296.062 239.353,296.410 239.353 C 297.091 239.353,299.012 237.750,299.012 237.182 C 299.012 236.993,299.254 236.837,299.550 236.837 C 299.846 236.837,300.688 236.271,301.422 235.580 C 302.155 234.888,302.896 234.322,303.068 234.322 C 303.240 234.322,304.002 233.675,304.762 232.884 C 305.522 232.093,306.313 231.447,306.521 231.447 C 306.729 231.447,307.627 230.719,308.517 229.829 C 309.406 228.940,310.226 228.212,310.338 228.212 C 310.592 228.212,311.274 227.652,312.856 226.146 C 313.530 225.503,314.176 224.978,314.290 224.978 C 314.404 224.978,314.893 224.614,315.376 224.169 C 317.595 222.126,318.047 221.743,318.242 221.743 C 318.357 221.743,318.847 221.379,319.330 220.934 C 321.557 218.883,322.001 218.509,322.205 218.509 C 322.325 218.509,323.469 217.457,324.748 216.173 C 326.026 214.888,327.245 213.836,327.457 213.836 C 327.923 213.836,333.872 207.765,333.872 207.289 C 333.872 207.103,334.519 206.330,335.310 205.571 C 336.101 204.811,336.748 204.022,336.748 203.818 C 336.748 203.614,337.152 203.043,337.646 202.548 C 338.140 202.054,338.544 201.555,338.544 201.439 C 338.544 201.323,338.868 200.881,339.263 200.456 C 339.659 200.032,339.982 199.473,339.982 199.213 C 339.982 198.954,340.144 198.742,340.341 198.742 C 340.539 198.742,340.701 198.438,340.701 198.067 C 340.701 197.696,340.943 197.191,341.240 196.945 C 341.536 196.699,341.779 196.275,341.779 196.003 C 341.779 195.730,341.941 195.508,342.138 195.508 C 342.336 195.508,342.498 195.198,342.498 194.819 C 342.498 194.440,342.625 194.076,342.781 194.010 C 343.248 193.812,345.013 189.924,345.013 189.093 C 345.013 188.668,345.175 188.320,345.373 188.320 C 345.571 188.320,345.732 187.835,345.732 187.242 C 345.732 186.649,345.894 186.164,346.092 186.164 C 346.289 186.164,346.451 185.759,346.451 185.265 C 346.451 184.771,346.613 184.367,346.810 184.367 C 347.008 184.367,347.170 183.881,347.170 183.288 C 347.170 182.695,347.315 182.210,347.491 182.210 C 347.833 182.210,347.984 181.424,348.628 176.280 C 349.131 172.263,348.866 158.397,348.282 158.203 C 348.066 158.130,347.889 157.438,347.889 156.664 C 347.889 155.889,347.727 155.256,347.529 155.256 C 347.332 155.256,347.170 154.690,347.170 153.998 C 347.170 153.306,347.008 152.740,346.810 152.740 C 346.613 152.740,346.451 152.336,346.451 151.842 C 346.451 151.348,346.289 150.943,346.092 150.943 C 345.894 150.943,345.732 150.620,345.732 150.225 C 345.732 149.829,345.589 149.506,345.414 149.506 C 345.238 149.506,344.986 148.778,344.853 147.889 C 344.719 146.999,344.458 146.271,344.273 146.271 C 344.087 146.271,343.935 145.948,343.935 145.553 C 343.935 145.157,343.813 144.834,343.664 144.834 C 343.514 144.834,343.163 144.308,342.882 143.666 C 342.602 143.023,342.077 142.236,341.716 141.917 C 341.355 141.597,341.060 141.091,341.060 140.793 C 341.060 140.494,340.818 140.048,340.521 139.802 C 340.225 139.556,339.982 139.197,339.982 139.004 C 339.982 138.811,339.497 138.200,338.904 137.646 C 338.311 137.092,337.826 136.535,337.826 136.408 C 337.826 136.091,337.197 135.357,335.362 133.530 C 333.553 131.730,333.439 131.616,331.583 129.722 C 330.818 128.941,330.057 128.302,329.892 128.302 C 329.727 128.302,329.188 127.898,328.694 127.403 C 328.200 126.909,327.605 126.505,327.372 126.505 C 327.139 126.505,326.687 126.205,326.367 125.838 C 326.048 125.471,325.422 125.055,324.978 124.915 C 324.533 124.774,324.169 124.509,324.169 124.324 C 324.169 124.140,323.845 123.989,323.450 123.989 C 323.055 123.989,322.731 123.827,322.731 123.630 C 322.731 123.432,322.489 123.270,322.192 123.270 C 321.896 123.270,321.653 123.109,321.653 122.911 C 321.653 122.713,321.330 122.552,320.934 122.552 C 320.539 122.552,320.216 122.390,320.216 122.192 C 320.216 121.995,319.892 121.833,319.497 121.833 C 319.102 121.833,318.778 121.689,318.778 121.512 C 318.778 121.210,317.300 120.641,316.378 120.590 C 316.144 120.577,315.834 120.447,315.689 120.301 C 315.543 120.155,315.046 120.036,314.585 120.036 C 314.124 120.036,313.747 119.874,313.747 119.677 C 313.747 119.479,313.261 119.317,312.668 119.317 C 312.075 119.317,311.590 119.155,311.590 118.958 C 311.590 118.760,311.024 118.598,310.332 118.598 C 309.641 118.598,309.075 118.437,309.075 118.239 C 309.075 118.041,308.185 117.880,307.098 117.880 C 306.011 117.880,305.121 117.718,305.121 117.520 C 305.121 117.293,302.486 117.161,297.934 117.161 C 293.381 117.161,290.746 117.293,290.746 117.520 C 290.746 117.718,289.856 117.880,288.769 117.880 C 287.682 117.880,286.792 118.041,286.792 118.239 C 286.792 118.437,286.146 118.598,285.355 118.598 C 284.564 118.598,283.917 118.760,283.917 118.958 C 283.917 119.155,283.351 119.317,282.659 119.317 C 281.968 119.317,281.402 119.479,281.402 119.677 C 281.402 119.874,281.024 120.036,280.563 120.036 C 280.102 120.036,279.605 120.155,279.460 120.301 C 279.314 120.447,279.004 120.577,278.771 120.590 C 277.849 120.641,276.370 121.210,276.370 121.512 C 276.370 121.689,276.047 121.833,275.651 121.833 C 275.256 121.833,274.933 121.995,274.933 122.192 C 274.933 122.390,274.609 122.552,274.214 122.552 C 273.819 122.552,273.495 122.713,273.495 122.911 C 273.495 123.109,273.252 123.270,272.956 123.270 C 272.659 123.270,272.417 123.432,272.417 123.630 C 272.417 123.827,272.120 123.989,271.758 123.989 C 271.396 123.989,270.978 124.111,270.830 124.259 C 270.681 124.407,270.452 124.542,270.320 124.559 C 269.670 124.644,268.582 125.266,268.062 125.851 C 267.742 126.211,267.276 126.505,267.026 126.505 C 266.776 126.505,266.310 126.805,265.990 127.172 C 265.670 127.539,265.045 127.955,264.600 128.095 C 264.155 128.235,263.792 128.501,263.792 128.685 C 263.792 128.870,263.573 129.021,263.306 129.021 C 262.779 129.021,260.780 130.799,260.420 131.589 C 260.247 131.967,260.151 131.975,259.988 131.626 C 259.873 131.379,259.533 131.177,259.234 131.177 C 258.934 131.177,258.236 130.692,257.682 130.099 C 257.128 129.506,256.566 129.021,256.434 129.021 C 256.301 129.021,255.968 128.819,255.692 128.571 C 254.503 127.505,254.096 127.224,253.744 127.224 C 253.538 127.224,253.369 127.062,253.369 126.864 C 253.369 126.667,253.082 126.505,252.730 126.505 C 252.378 126.505,251.857 126.181,251.572 125.786 C 251.287 125.391,250.767 125.067,250.415 125.067 C 250.063 125.067,249.775 124.896,249.775 124.687 C 249.775 124.477,249.625 124.399,249.441 124.513 C 249.257 124.627,249.005 124.555,248.881 124.354 C 248.756 124.154,248.377 123.989,248.037 123.989 C 247.697 123.989,247.185 123.666,246.900 123.270 C 246.615 122.875,246.014 122.552,245.563 122.552 C 245.113 122.552,244.744 122.390,244.744 122.192 C 244.744 121.995,244.420 121.833,244.025 121.833 C 243.630 121.833,243.306 121.691,243.306 121.518 C 243.306 121.264,242.105 120.842,240.731 120.615 C 240.599 120.593,240.370 120.454,240.222 120.305 C 240.073 120.157,239.584 120.036,239.135 120.036 C 238.685 120.036,238.217 119.874,238.095 119.677 C 237.973 119.479,237.478 119.317,236.996 119.317 C 236.513 119.317,236.119 119.155,236.119 118.958 C 236.119 118.760,235.391 118.598,234.501 118.598 C 233.612 118.598,232.884 118.437,232.884 118.239 C 232.884 118.041,231.995 117.880,230.907 117.880 C 229.820 117.880,228.931 117.718,228.931 117.520 C 228.931 117.293,226.295 117.161,221.743 117.161 C 217.191 117.161,214.555 117.293,214.555 117.520 M230.286 132.546 C 230.364 132.781,230.981 132.974,231.656 132.974 C 232.332 132.974,232.884 133.136,232.884 133.333 C 232.884 133.531,233.288 133.693,233.783 133.693 C 234.277 133.693,234.681 133.854,234.681 134.052 C 234.681 134.250,234.995 134.412,235.379 134.412 C 235.762 134.412,236.176 134.573,236.298 134.771 C 236.420 134.969,236.915 135.130,237.398 135.130 C 237.880 135.130,238.275 135.285,238.275 135.473 C 238.275 135.662,238.841 135.923,239.533 136.052 C 240.225 136.182,240.791 136.393,240.791 136.520 C 240.791 136.648,241.316 136.981,241.959 137.262 C 242.601 137.542,243.388 138.067,243.708 138.427 C 244.028 138.788,244.533 139.084,244.832 139.084 C 245.130 139.084,245.576 139.326,245.822 139.623 C 246.068 139.919,246.427 140.162,246.620 140.162 C 246.813 140.162,247.424 140.647,247.978 141.240 C 248.532 141.833,249.159 142.318,249.371 142.318 C 249.583 142.318,251.771 144.340,254.233 146.810 C 257.934 150.525,258.891 151.303,259.764 151.303 C 260.635 151.303,261.614 150.514,265.345 146.810 C 267.834 144.340,270.055 142.318,270.281 142.318 C 270.506 142.318,271.144 141.833,271.698 141.240 C 272.252 140.647,272.883 140.162,273.100 140.162 C 273.317 140.162,273.495 140.031,273.495 139.871 C 273.495 139.712,274.182 139.281,275.022 138.913 C 275.863 138.546,276.811 137.949,277.131 137.586 C 277.451 137.224,277.976 136.927,278.299 136.927 C 278.622 136.927,278.886 136.773,278.886 136.584 C 278.886 136.395,279.452 136.135,280.144 136.005 C 280.836 135.875,281.402 135.625,281.402 135.450 C 281.402 135.274,281.693 135.130,282.049 135.130 C 282.852 135.130,284.630 134.327,284.633 133.962 C 284.635 133.814,285.121 133.693,285.714 133.693 C 286.307 133.693,286.792 133.531,286.792 133.333 C 286.792 133.136,287.345 132.974,288.020 132.974 C 288.696 132.974,289.316 132.772,289.398 132.525 C 289.512 132.182,291.565 132.075,298.035 132.075 C 304.346 132.075,306.638 132.191,306.972 132.525 C 307.219 132.772,307.942 132.974,308.577 132.974 C 309.213 132.974,309.787 133.097,309.853 133.247 C 310.011 133.607,315.256 136.208,315.823 136.208 C 316.065 136.208,316.262 136.370,316.262 136.568 C 316.262 136.765,316.515 136.927,316.825 136.927 C 317.134 136.927,317.795 137.412,318.294 138.005 C 318.793 138.598,319.435 139.084,319.720 139.084 C 320.005 139.084,320.758 139.668,321.395 140.383 C 322.031 141.097,322.918 142.027,323.366 142.449 C 325.684 144.633,327.403 146.527,327.403 146.894 C 327.403 147.057,327.727 147.424,328.122 147.709 C 328.518 147.994,328.841 148.515,328.841 148.866 C 328.841 149.218,329.000 149.506,329.194 149.506 C 329.387 149.506,329.648 149.910,329.772 150.404 C 329.896 150.898,330.141 151.303,330.317 151.303 C 330.494 151.303,330.638 151.626,330.638 152.022 C 330.638 152.417,330.769 152.740,330.930 152.740 C 331.091 152.740,331.445 153.306,331.716 153.998 C 331.988 154.690,332.341 155.256,332.502 155.256 C 332.663 155.256,332.794 155.741,332.794 156.334 C 332.794 156.927,332.948 157.412,333.136 157.412 C 333.324 157.412,333.588 158.386,333.722 159.577 C 333.857 160.767,334.108 161.828,334.279 161.934 C 334.684 162.184,334.689 173.944,334.284 173.944 C 334.115 173.944,333.874 175.035,333.750 176.368 C 333.625 177.702,333.360 178.847,333.159 178.914 C 332.958 178.981,332.794 179.507,332.794 180.084 C 332.794 180.660,332.633 181.132,332.435 181.132 C 332.237 181.132,332.075 181.536,332.075 182.031 C 332.075 182.525,331.914 182.929,331.716 182.929 C 331.518 182.929,331.357 183.252,331.357 183.648 C 331.357 184.043,331.195 184.367,330.997 184.367 C 330.800 184.367,330.638 184.690,330.638 185.085 C 330.638 185.481,330.484 185.804,330.295 185.804 C 330.106 185.804,329.846 186.370,329.716 187.062 C 329.586 187.754,329.376 188.320,329.248 188.320 C 329.121 188.320,328.787 188.845,328.507 189.488 C 328.226 190.130,327.702 190.917,327.341 191.237 C 326.980 191.557,326.685 192.082,326.685 192.405 C 326.685 192.728,326.534 192.992,326.349 192.992 C 326.165 192.992,325.900 193.353,325.760 193.793 C 325.620 194.234,325.043 195.027,324.478 195.555 C 323.913 196.083,323.450 196.633,323.450 196.778 C 323.450 196.922,323.102 197.343,322.676 197.712 C 322.251 198.081,322.021 198.383,322.167 198.383 C 322.394 198.383,320.469 200.290,319.059 201.461 C 318.806 201.671,318.194 202.357,317.700 202.985 C 317.206 203.613,316.582 204.128,316.313 204.130 C 316.045 204.132,314.964 205.022,313.911 206.110 C 312.858 207.197,311.803 208.086,311.567 208.086 C 311.331 208.086,310.284 208.976,309.239 210.063 C 308.194 211.150,307.168 212.040,306.959 212.040 C 306.749 212.040,305.850 212.767,304.961 213.657 C 304.071 214.546,303.251 215.274,303.139 215.274 C 302.910 215.274,302.269 215.783,300.987 216.981 C 300.512 217.426,300.029 217.790,299.915 217.790 C 299.800 217.790,299.155 218.315,298.480 218.958 C 296.915 220.449,296.216 221.024,295.972 221.024 C 295.866 221.024,295.111 221.671,294.297 222.462 C 293.482 223.252,292.631 223.899,292.406 223.899 C 292.181 223.899,291.513 224.462,290.922 225.149 C 290.331 225.837,289.624 226.403,289.351 226.407 C 289.077 226.412,288.320 226.981,287.668 227.673 C 287.015 228.365,286.268 228.934,286.008 228.939 C 285.748 228.943,284.984 229.584,284.310 230.363 C 283.637 231.141,282.970 231.707,282.829 231.620 C 282.687 231.532,282.067 231.943,281.451 232.532 C 280.834 233.121,280.246 233.603,280.144 233.603 C 280.041 233.603,279.453 234.085,278.837 234.674 C 278.220 235.263,277.592 235.668,277.441 235.575 C 277.290 235.481,276.785 235.887,276.319 236.477 C 275.853 237.067,275.262 237.551,275.006 237.553 C 274.750 237.555,274.136 237.960,273.642 238.455 C 273.148 238.949,272.573 239.353,272.365 239.353 C 272.157 239.353,271.533 239.838,270.979 240.431 C 270.425 241.024,269.824 241.509,269.642 241.509 C 269.461 241.509,268.960 241.914,268.531 242.408 C 268.101 242.902,267.530 243.306,267.261 243.306 C 266.993 243.306,266.266 243.792,265.645 244.385 C 265.025 244.978,264.354 245.463,264.154 245.463 C 263.955 245.463,263.792 245.605,263.792 245.779 C 263.792 245.952,263.301 246.298,262.701 246.546 C 262.102 246.794,261.271 247.420,260.855 247.937 C 260.367 248.544,260.043 248.718,259.939 248.428 C 259.851 248.181,259.468 247.978,259.090 247.978 C 258.711 247.978,258.401 247.828,258.401 247.643 C 258.401 247.459,258.096 247.211,257.724 247.093 C 257.352 246.975,256.544 246.398,255.930 245.811 C 255.316 245.224,254.608 244.744,254.357 244.744 C 254.107 244.744,253.700 244.420,253.453 244.025 C 253.206 243.630,252.770 243.306,252.484 243.306 C 252.198 243.306,251.560 242.902,251.066 242.408 C 250.572 241.914,250.078 241.509,249.968 241.509 C 249.859 241.509,249.261 241.024,248.641 240.431 C 248.020 239.838,247.293 239.353,247.024 239.353 C 246.756 239.353,246.185 238.949,245.755 238.455 C 245.325 237.960,244.840 237.556,244.676 237.556 C 244.512 237.556,243.870 237.071,243.250 236.478 C 242.629 235.885,241.991 235.400,241.832 235.400 C 241.672 235.400,241.138 234.996,240.644 234.501 C 240.149 234.007,239.571 233.603,239.358 233.603 C 239.146 233.603,238.475 233.037,237.867 232.345 C 237.260 231.653,236.519 231.087,236.220 231.087 C 235.921 231.087,235.110 230.440,234.417 229.650 C 233.724 228.859,233.003 228.212,232.815 228.212 C 232.627 228.212,232.248 228.010,231.972 227.763 C 230.898 226.799,230.390 226.415,230.192 226.415 C 230.078 226.415,229.419 225.849,228.727 225.157 C 228.035 224.465,227.329 223.899,227.158 223.899 C 226.987 223.899,226.021 223.091,225.012 222.102 C 224.003 221.114,223.021 220.305,222.831 220.305 C 222.641 220.305,221.920 219.739,221.228 219.048 C 220.536 218.356,219.878 217.790,219.766 217.790 C 219.574 217.790,219.118 217.403,216.904 215.364 C 216.421 214.919,215.921 214.555,215.794 214.555 C 215.667 214.555,215.093 214.053,214.520 213.439 C 213.946 212.825,213.477 212.446,213.477 212.596 C 213.477 212.746,213.175 212.520,212.806 212.095 C 212.437 211.669,212.028 211.321,211.898 211.321 C 211.768 211.321,210.947 210.633,210.074 209.793 C 208.202 207.991,207.466 207.367,207.211 207.367 C 207.109 207.367,206.092 206.478,204.951 205.391 C 203.811 204.304,202.758 203.414,202.611 203.414 C 202.212 203.414,196.586 197.727,196.586 197.325 C 196.586 197.134,196.181 196.574,195.687 196.079 C 195.193 195.585,194.789 194.990,194.789 194.758 C 194.789 194.293,193.424 192.992,192.937 192.992 C 192.770 192.992,192.633 192.680,192.633 192.299 C 192.633 191.918,192.420 191.392,192.161 191.131 C 191.902 190.870,191.458 190.130,191.175 189.488 C 190.892 188.845,190.538 188.320,190.388 188.320 C 190.239 188.320,190.117 187.996,190.117 187.601 C 190.117 187.206,189.993 186.882,189.842 186.882 C 189.508 186.882,188.320 184.215,188.320 183.466 C 188.320 183.170,188.158 182.929,187.960 182.929 C 187.763 182.929,187.601 182.525,187.601 182.031 C 187.601 181.536,187.439 181.132,187.242 181.132 C 187.044 181.132,186.882 180.647,186.882 180.054 C 186.882 179.461,186.721 178.976,186.523 178.976 C 186.325 178.976,186.164 178.410,186.164 177.718 C 186.164 177.026,186.002 176.460,185.804 176.460 C 185.606 176.460,185.445 175.732,185.445 174.843 C 185.445 173.953,185.283 173.226,185.085 173.226 C 184.862 173.226,184.726 171.189,184.726 167.835 C 184.726 164.480,184.862 162.444,185.085 162.444 C 185.283 162.444,185.445 161.716,185.445 160.827 C 185.445 159.937,185.606 159.209,185.804 159.209 C 186.002 159.209,186.164 158.805,186.164 158.311 C 186.164 157.817,186.325 157.412,186.523 157.412 C 186.721 157.412,186.882 156.927,186.882 156.334 C 186.882 155.741,187.006 155.256,187.157 155.256 C 187.491 155.256,188.679 152.588,188.679 151.839 C 188.679 151.544,188.841 151.303,189.039 151.303 C 189.236 151.303,189.398 151.096,189.398 150.843 C 189.398 150.590,189.721 150.150,190.117 149.865 C 190.512 149.580,190.836 149.133,190.836 148.871 C 190.836 148.609,191.240 147.991,191.734 147.497 C 192.228 147.002,192.633 146.448,192.633 146.265 C 192.633 145.830,199.019 139.443,199.454 139.443 C 199.638 139.443,200.192 139.039,200.686 138.544 C 201.180 138.050,201.799 137.646,202.061 137.646 C 202.323 137.646,202.770 137.323,203.055 136.927 C 203.340 136.532,203.694 136.208,203.843 136.208 C 204.319 136.208,208.261 134.272,208.386 133.977 C 208.452 133.821,208.977 133.693,209.554 133.693 C 210.130 133.693,210.602 133.531,210.602 133.333 C 210.602 133.136,211.006 132.974,211.500 132.974 C 211.995 132.974,212.399 132.822,212.399 132.635 C 212.399 131.835,230.019 131.747,230.286 132.546 " stroke="none" fill="#349cec" fill-rule="evenodd"></path><path id="path1" d="M59.458 82.266 C 59.574 82.453,59.193 82.523,58.582 82.427 C 57.954 82.328,57.502 82.416,57.502 82.638 C 57.502 82.847,57.219 83.019,56.873 83.020 C 56.023 83.022,54.404 84.075,52.561 85.825 L 51.033 87.275 51.033 89.969 C 51.033 93.518,53.819 96.667,57.476 97.252 C 58.281 97.381,58.940 97.627,58.940 97.800 C 58.940 97.978,118.276 98.113,196.047 98.113 C 272.833 98.113,333.154 97.977,333.154 97.803 C 333.154 97.632,333.878 97.393,334.763 97.272 C 336.353 97.054,337.522 96.555,338.458 95.695 C 338.723 95.453,339.150 95.129,339.408 94.976 C 341.433 93.779,342.336 89.783,341.086 87.557 C 340.704 86.878,340.489 86.226,340.606 86.108 C 340.724 85.990,340.590 85.894,340.308 85.894 C 340.026 85.894,339.594 85.571,339.347 85.175 C 339.100 84.780,338.657 84.456,338.362 84.456 C 338.067 84.456,337.826 84.295,337.826 84.097 C 337.826 83.899,337.568 83.738,337.252 83.738 C 336.937 83.738,336.169 83.374,335.545 82.929 L 334.412 82.120 196.832 82.027 C 112.873 81.971,59.333 82.064,59.458 82.266 M55.163 143.402 C 55.038 143.603,54.786 143.674,54.602 143.561 C 54.418 143.447,54.268 143.595,54.268 143.890 C 54.268 144.185,53.981 144.517,53.630 144.628 C 51.686 145.245,49.587 154.537,51.393 154.537 C 51.590 154.537,51.752 154.799,51.752 155.119 C 51.752 155.803,53.742 158.177,54.054 157.866 C 54.172 157.748,54.268 157.841,54.268 158.071 C 54.268 158.302,54.672 158.491,55.166 158.491 C 55.660 158.491,56.065 158.652,56.065 158.850 C 56.065 159.088,72.537 159.209,104.762 159.209 C 136.987 159.209,153.459 159.088,153.459 158.850 C 153.459 158.652,153.661 158.491,153.909 158.491 C 154.552 158.491,157.412 155.796,157.412 155.190 C 157.412 154.910,157.588 154.506,157.802 154.291 C 158.361 153.733,158.666 149.624,158.219 148.680 C 158.013 148.245,157.647 147.363,157.405 146.721 C 157.163 146.078,156.814 145.553,156.629 145.553 C 156.443 145.553,156.392 145.391,156.514 145.193 C 156.636 144.996,156.562 144.834,156.348 144.834 C 156.135 144.834,155.320 144.429,154.537 143.935 L 153.114 143.037 104.251 143.037 C 71.541 143.037,55.314 143.158,55.163 143.402 M55.058 204.564 C 54.821 204.801,54.627 204.851,54.627 204.675 C 54.627 204.499,54.398 204.669,54.117 205.053 C 53.836 205.436,53.432 205.750,53.219 205.750 C 53.005 205.750,52.844 205.894,52.861 206.069 C 52.878 206.245,52.744 206.488,52.563 206.609 C 50.230 208.171,50.791 217.790,53.215 217.790 C 53.422 217.790,53.508 217.924,53.407 218.088 C 53.305 218.253,53.781 218.606,54.464 218.874 C 55.147 219.142,55.705 219.511,55.705 219.693 C 55.705 219.875,56.100 219.925,56.582 219.804 C 57.064 219.683,57.559 219.746,57.681 219.945 C 58.004 220.468,113.082 220.440,113.405 219.917 C 113.540 219.699,114.041 219.628,114.547 219.755 C 115.147 219.905,115.674 219.776,116.125 219.369 C 116.497 219.032,116.801 218.849,116.801 218.962 C 116.801 219.075,117.367 218.618,118.059 217.946 C 118.751 217.274,119.317 216.511,119.317 216.251 C 119.317 215.990,119.488 215.606,119.697 215.397 C 120.194 214.900,120.571 211.196,120.210 210.357 C 120.055 209.997,119.962 209.360,120.002 208.941 C 120.042 208.521,119.824 208.082,119.517 207.964 C 119.209 207.846,118.958 207.530,118.958 207.262 C 118.958 206.630,117.568 205.363,116.532 205.049 C 116.087 204.914,115.723 204.652,115.723 204.468 C 115.723 203.930,55.598 204.025,55.058 204.564 M57.502 264.870 C 57.502 265.067,56.936 265.229,56.244 265.229 C 55.553 265.229,54.987 265.380,54.987 265.564 C 54.987 265.854,53.540 266.519,53.272 266.352 C 53.133 266.266,52.179 267.171,52.185 267.385 C 52.198 267.939,51.622 269.182,51.351 269.182 C 51.176 269.182,51.033 270.800,51.033 272.776 C 51.033 275.117,51.169 276.370,51.423 276.370 C 51.637 276.370,51.749 276.558,51.673 276.787 C 51.596 277.017,51.903 277.603,52.355 278.090 C 52.807 278.578,53.089 279.118,52.982 279.290 C 52.875 279.463,53.008 279.605,53.276 279.605 C 53.952 279.605,55.699 280.444,55.702 280.770 C 55.708 281.333,221.499 281.065,222.245 280.502 C 222.620 280.219,223.090 280.088,223.289 280.211 C 223.494 280.338,223.540 280.255,223.395 280.020 C 223.254 279.791,223.317 279.605,223.535 279.605 C 223.963 279.605,225.466 278.218,225.679 277.628 C 225.750 277.430,226.044 276.703,226.333 276.013 C 226.810 274.872,226.832 270.920,226.371 269.223 C 226.192 268.565,223.395 265.948,222.871 265.948 C 222.646 265.948,222.462 265.786,222.462 265.588 C 222.462 265.391,221.977 265.229,221.384 265.229 C 220.791 265.229,220.305 265.067,220.305 264.870 C 220.305 264.631,192.932 264.510,138.904 264.510 C 84.876 264.510,57.502 264.631,57.502 264.870 " stroke="none" fill="#f4c474" fill-rule="evenodd"></path><path id="path2" d="" stroke="none" fill="#60b0f0" fill-rule="evenodd"></path><path id="path3" d="" stroke="none" fill="#c4b0b4" fill-rule="evenodd"></path><path id="path4" d="M51.945 94.246 C 52.152 94.785,53.555 95.741,53.538 95.331 C 53.531 95.181,53.130 94.770,52.646 94.418 C 52.091 94.014,51.832 93.950,51.945 94.246 " stroke="none" fill="#f8b074" fill-rule="evenodd"></path></g></svg>